<svg width="120" height="40" viewBox="0 0 120 40" fill="none" xmlns="http://www.w3.org/2000/svg">
  <rect width="40" height="40" rx="8" fill="#60A5FA"/>
  <path d="M8 20C8 13.3726 13.3726 8 20 8C26.6274 8 32 13.3726 32 20C32 26.6274 26.6274 32 20 32C13.3726 32 8 26.6274 8 20Z" fill="#111827"/>
  <path d="M16 16L24 24M16 24L24 16" stroke="#60A5FA" stroke-width="2" stroke-linecap="round"/>
  <path d="M48 15H52.84L58.6 28H54.44L53.44 25.36H47.32L46.32 28H42.24L48 15ZM52.2 22.4L50.4 17.92L48.56 22.4H52.2Z" fill="white"/>
  <path d="M65.4156 28.16C63.5489 28.16 62.0689 27.7067 60.9756 26.8C59.8956 25.88 59.2822 24.5867 59.1356 22.92H63.0156C63.1089 23.56 63.3622 24.0533 63.7756 24.4C64.1889 24.7333 64.7089 24.9 65.3356 24.9C65.9356 24.9 66.3889 24.7733 66.6956 24.52C67.0156 24.2533 67.1756 23.9067 67.1756 23.48C67.1756 22.9867 66.9622 22.6133 66.5356 22.36C66.1089 22.1067 65.3889 21.8267 64.3756 21.52C63.2889 21.2133 62.4156 20.92 61.7556 20.64C61.0956 20.3467 60.5222 19.9067 60.0356 19.32C59.5489 18.7333 59.3089 17.96 59.3089 17C59.3089 16.1733 59.5489 15.4267 60.0289 14.76C60.5222 14.08 61.2289 13.5467 62.1489 13.16C63.0689 12.76 64.1489 12.56 65.3889 12.56C67.2022 12.56 68.6289 13.0133 69.6689 13.92C70.7089 14.8133 71.3022 16.0533 71.4489 17.64H67.7356C67.6556 17.0667 67.4156 16.6133 67.0156 16.28C66.6289 15.9467 66.1222 15.78 65.4956 15.78C64.9489 15.78 64.5222 15.9067 64.2156 16.16C63.9089 16.4 63.7556 16.7333 63.7556 17.16C63.7556 17.6533 63.9689 18.04 64.3956 18.32C64.8356 18.5867 65.5489 18.8533 66.5356 19.12C67.6356 19.44 68.5222 19.7467 69.1956 20.04C69.8689 20.3333 70.4489 20.7733 70.9356 21.36C71.4222 21.9467 71.6689 22.7333 71.6756 23.72C71.6756 24.5467 71.4356 25.2933 70.9556 25.96C70.4756 26.6267 69.7689 27.1533 68.8356 27.54C67.9156 27.9533 66.7756 28.16 65.4156 28.16Z" fill="white"/>
  <path d="M81.0964 28.16C79.6031 28.16 78.2698 27.7933 77.0964 27.06C75.9364 26.3267 75.0231 25.3 74.3564 23.98C73.6898 22.66 73.3564 21.1733 73.3564 19.52C73.3564 17.8667 73.6898 16.3867 74.3564 15.08C75.0231 13.76 75.9364 12.7333 77.0964 12C78.2698 11.2667 79.6031 10.9 81.0964 10.9C82.5898 10.9 83.9164 11.2667 85.0764 12C86.2498 12.7333 87.1631 13.76 87.8164 15.08C88.4831 16.3867 88.8164 17.8667 88.8164 19.52C88.8164 21.1733 88.4831 22.66 87.8164 23.98C87.1631 25.3 86.2498 26.3267 85.0764 27.06C83.9164 27.7933 82.5898 28.16 81.0964 28.16ZM81.0964 24.52C82.1964 24.52 83.0764 24.0933 83.7364 23.24C84.3964 22.3867 84.7298 21.1467 84.7364 19.52C84.7364 17.8933 84.4031 16.66 83.7364 15.82C83.0698 14.9667 82.1964 14.54 81.1164 14.54C80.0164 14.54 79.1364 14.9667 78.4764 15.82C77.8164 16.66 77.4831 17.8933 77.4764 19.52C77.4764 21.1467 77.8098 22.3867 78.4764 23.24C79.1431 24.0933 80.0164 24.52 81.0964 24.52Z" fill="white"/>
  <path d="M92.9073 15V11.06H96.8273V15H99.9473V18.28H96.8273V23.08C96.8273 23.5867 96.9406 23.9533 97.1673 24.18C97.394 24.3933 97.794 24.5 98.3673 24.5H99.9473V28H97.6873C94.5006 28 92.9073 26.4267 92.9073 23.28V18.28H90.8073V15H92.9073Z" fill="white"/>
  <path d="M111.863 28L108.023 22.02V28H103.923V10.32H108.023V21.38L111.783 15.64H116.703L111.863 22.4L116.943 28H111.863Z" fill="white"/>
</svg> 